HIERARCHY
ROOT Hips
{
  OFFSET -975.484 85.9082 349.821
  CHANNELS 6 Xposition Yposition Zposition Zrotation Xrotation Yrotation
  JOINT RightUpLeg
  {
    OFFSET -8.9458 -8.66707 0.101652
    CHANNELS 3 Zrotation Xrotation Yrotation
    JOINT RightLeg
    {
      OFFSET 0 -44.4227 1.3727
      CHANNELS 3 Zrotation Xrotation Yrotation
      JOINT RightFoot
      {
        OFFSET 0.253549 -42.0924 -1.46059
        CHANNELS 3 Zrotation Xrotation Yrotation
        JOINT RightToes
        {
          OFFSET 0.04 -4.41509 8.4991
          CHANNELS 3 Zrotation Xrotation Yrotation
          End Site
          {
            OFFSET -0.08 -0.137448 9.77979
          }
        }
      }
    }
  }
  JOINT Spine
  {
    OFFSET 0 11.8905 0
    CHANNELS 3 Zrotation Xrotation Yrotation
    JOINT Spine1
    {
      OFFSET 0 25.6574 0.127663
      CHANNELS 3 Zrotation Xrotation Yrotation
      JOINT HEad
      {
        OFFSET 0 8.73416 0.011341
        CHANNELS 3 Zrotation Xrotation Yrotation
        End Site
        {
          OFFSET -0.29 12.7742 2.51395
        }
      }
      JOINT LeftShoulder1
      {
        OFFSET 8.99 -0.362252 -0.22
        CHANNELS 3 Zrotation Xrotation Yrotation
        JOINT LeftArm
        {
          OFFSET 10.2827 -0.00338 0.322123
          CHANNELS 3 Zrotation Xrotation Yrotation
          JOINT LeftForeArm
          {
            OFFSET 32.7669 0.099144 -1.42434
            CHANNELS 3 Zrotation Xrotation Yrotation
            JOINT LeftHand
            {
              OFFSET 27.5643 0.085362 1.02216
              CHANNELS 3 Zrotation Xrotation Yrotation
              End Site
              {
                OFFSET 16.7443 -0.6 1.50291
              }
            }
          }
        }
      }
      JOINT RightShoulder
      {
        OFFSET -8.99 -0.362252 -0.22
        CHANNELS 3 Zrotation Xrotation Yrotation
        JOINT RightArm
        {
          OFFSET -10.2827 -0.00338 0.322123
          CHANNELS 3 Zrotation Xrotation Yrotation
          JOINT RightForeArm
          {
            OFFSET -32.8971 0.099144 -1.42434
            CHANNELS 3 Zrotation Xrotation Yrotation
            JOINT RightHand
            {
              OFFSET -27.4921 0.085362 1.02216
              CHANNELS 3 Zrotation Xrotation Yrotation
              End Site
              {
                OFFSET -16.6312 -0.6 1.50291
              }
            }
          }
        }
      }
    }
  }
  JOINT LeftUpLeg
  {
    OFFSET 8.9458 -8.66707 0.101652
    CHANNELS 3 Zrotation Xrotation Yrotation
    JOINT LeftLeg
    {
      OFFSET 0 -44.4227 1.3727
      CHANNELS 3 Zrotation Xrotation Yrotation
      JOINT LeftFoot
      {
        OFFSET -0.253549 -42.0924 -1.46059
        CHANNELS 3 Zrotation Xrotation Yrotation
        JOINT LeftToes
        {
          OFFSET -0.04 -4.41509 8.4991
          CHANNELS 3 Zrotation Xrotation Yrotation
          End Site
          {
            OFFSET 0.08 -0.047448 9.77979
          }
        }
      }
    }
  }
}
MOTION
Frames:	14
Frame Time:	0.0166667
-950.768 95.9272 373.774 4.00251 -8.62063 31.9139 -18.6691 6.99905 2.55861 34.7727 18.5529 -27.0282 -2.52826 -2.21461 -0.372076 0.0462048 0.000533403 0.662642 -4.62612 23.5638 -3.14471 -0.00323114 -5.06801e-007 0.00650578 -8.0994 3.8403 17.621 0 0 -0 -171.466 -53.3691 -138.082 -95.3797 67.1945 -24.4205 18.7604 16.7048 -8.96501 19.5937 4.89399 0.525833 109.111 -14.3465 75.4145 37.7109 56.8615 77.7336 21.7859 14.4564 4.11682 24.445 -13.5221 -6.31506 -29.4971 25.7928 62.7356 -7.68334 -1.63736 -0.229968 -1.18446e-009 1.5602e-007 -4.87131e-009 
-951.33 95.8073 373.337 4.43733 -9.2341 31.974 -19.9204 7.51726 3.79106 37.3105 16.8107 -30.3395 -3.56543 -2.07289 -0.455468 0.0462048 0.000533403 0.662642 -5.29801 25.229 -4.30619 -0.00323114 -5.06801e-007 0.00650578 -3.13807 0.672538 13.7521 -7.95139e-016 1.59028e-015 3.18055e-015 -171.488 -52.6137 -138.995 -94.5132 67.5252 -24.3264 19.547 16.2145 -9.35274 20.1684 4.78051 1.64511 110.124 -13.4129 74.4353 36.0484 56.9098 78.9566 23.0842 15.0364 4.05952 25.751 -12.9267 -9.62199 -33.5926 21.8515 71.8625 -4.46215 -1.33564 -0.0557013 -1.18446e-009 1.5602e-007 -4.87131e-009 
-951.819 95.5501 372.873 4.8517 -9.78679 32.0261 -20.806 6.98278 5.1339 39.4287 16.4766 -33.8047 -4.05972 -1.8072 -0.526778 0.0462048 0.000533403 0.662642 -5.68253 26.2149 -5.19959 -0.00323184 0.00616951 0.00650578 0.984023 -1.7475 10.4025 7.95139e-016 3.18055e-015 -0 -171.208 -52.5122 -139.412 -93.5041 67.7338 -24.4756 19.1821 17.0549 -9.99814 20.4148 5.08138 2.42307 110.545 -12.699 73.7668 34.9731 57.0197 79.9521 23.4229 15.6042 3.79014 27.0095 -12.5414 -12.602 -36.2978 18.09 78.9631 -1.65693 -1.12321 -0.0266191 -1.18446e-009 1.5602e-007 -4.87131e-009 
-952.202 95.2091 372.466 5.23629 -10.2586 32.092 -21.5873 6.45944 6.34447 41.289 16.6204 -36.7077 -4.20298 -1.53308 -0.58321 0.0462048 0.000533403 0.662642 -5.81261 26.6186 -5.85827 -0.0032325 0.0120196 0.00650578 4.30992 -3.51392 7.38099 -3.18055e-015 -3.18055e-015 -3.18055e-015 -170.517 -52.8871 -139.185 -92.1832 67.8372 -24.9443 19.8043 16.6547 -10.3342 20.367 5.67505 2.866 110.596 -12.177 73.3799 34.3269 57.0667 80.7224 23.4378 16.1443 3.51777 28.0877 -12.2351 -15.2827 -38.0876 14.7253 84.3822 0.737133 -0.984924 -0.0202114 -1.18446e-009 1.5602e-007 -4.87131e-009 
-952.513 94.8289 372.164 5.5797 -10.641 32.1903 -22.2102 5.86889 7.38003 42.9261 17.0884 -39.156 -4.12115 -1.24293 -0.64625 0.0462048 0.000533403 0.662642 -5.72717 26.5379 -6.30439 -0.00323308 0.0170996 0.00650578 6.90161 -4.73019 4.57314 7.95139e-016 -3.18055e-015 9.54166e-015 -169.26 -53.5831 -138.153 -90.4581 67.8713 -25.7661 19.7223 17.0464 -10.8351 20.089 6.46259 2.99673 110.42 -11.8208 73.2178 33.9849 57.0257 81.301 23.1548 16.6471 3.20396 28.8127 -11.9519 -17.6554 -38.3974 11.7418 86.3162 2.90924 -1.00317 -0.001216 -1.18446e-009 1.5602e-007 -4.87131e-009 
-952.752 94.4271 371.998 5.87378 -10.9329 32.3395 -22.6627 5.16463 8.21945 44.3989 17.7848 -41.2622 -3.899 -0.957827 -0.715836 0.0462048 0.000533403 0.662642 -5.47245 26.0608 -6.55255 -0.00323329 0.0190003 0.00650578 8.84031 -5.48367 1.91487 0 1.59028e-015 -0 -167.259 -54.4664 -136.177 -88.136 67.8259 -27.0885 20.208 16.74 -11.1444 19.6709 7.3722 2.83793 110.099 -11.6096 73.2126 33.8519 56.9167 81.7355 22.8484 17.1059 2.9551 29.1399 -11.6088 -19.754 -37.9369 9.36672 85.4658 4.7323 -1.18981 0.0418541 -1.18446e-009 1.5602e-007 -4.87131e-009 
-952.889 94.0049 371.969 6.11513 -11.1423 32.5339 -22.9969 4.35312 8.88404 45.7775 18.6503 -43.1015 -3.56151 -0.701024 -0.780956 0.0462048 0.000533403 0.662642 -5.10418 25.2676 -6.58914 -0.00323303 0.0200711 0.00540039 10.2181 -5.84427 -0.6255 1.19271e-015 2.38542e-015 -0 -164.355 -55.403 -133.138 -85.1332 67.7 -28.9759 20.2396 16.9267 -11.5638 19.2092 8.35015 2.40986 109.672 -11.5278 73.3006 33.8564 56.7678 82.0699 22.4596 17.5258 2.7377 29.2284 -11.1767 -21.5864 -37.8297 7.56729 84.491 6.19115 -1.39208 0.097845 -1.18446e-009 1.5602e-007 -4.87131e-009 
-952.923 93.5825 372.062 6.3101 -11.2795 32.7631 -23.2456 3.47493 9.39483 47.0527 19.6436 -44.6924 -3.10609 -0.468415 -0.843528 0.0462048 0.000533403 0.662642 -4.67769 24.2318 -6.39993 -0.00323267 0.0204341 0.00430088 11.1293 -5.86682 -3.0581 7.95139e-016 7.95139e-016 -6.36111e-015 -160.478 -56.2498 -129.006 -81.4203 67.4588 -31.4565 20.5734 16.7185 -11.8604 18.7847 9.35643 1.73153 109.166 -11.5636 73.4277 33.9409 56.6081 82.3471 22.107 17.9174 2.59171 29.1832 -10.7345 -23.1218 -37.8902 6.21133 83.3936 7.43724 -1.55839 0.158099 -1.18446e-009 1.5602e-007 -4.87131e-009 
-952.859 93.1742 372.245 6.47478 -11.36 33.0187 -23.4489 2.57756 9.77983 48.2072 20.7479 -46.0474 -2.52086 -0.257163 -0.903929 0.0462048 0.000533403 0.662642 -4.32651 23.391 -6.17961 -0.00323227 0.0202117 0.00320285 11.2861 -5.04767 -3.93254 1.19271e-015 -7.95139e-016 -3.18055e-015 -148.363 -56.26 -118.206 -67.1295 65.8603 -42.6379 20.6026 16.8225 -12.1795 18.487 10.1024 1.18432 108.632 -11.7211 73.5791 34.0716 56.4455 82.5792 21.7226 18.2866 2.48523 29.0824 -10.3483 -24.3488 -38.0342 5.20575 82.2222 8.57981 -1.70678 0.221826 -1.18446e-009 1.5602e-007 -4.87131e-009 
-952.699 92.7894 372.48 6.63109 -11.3984 33.2954 -23.6463 1.69746 10.0685 49.2328 21.9484 -47.1912 -1.80616 -0.0698518 -0.958459 0.0462048 0.000533403 0.662642 -4.06297 22.7285 -5.92739 -0.00323185 0.019526 0.00210187 10.779 -3.50897 -3.4152 -3.97569e-016 -1.59028e-015 -6.36111e-015 -139.773 -55.5951 -110.359 -58.1143 63.9666 -49.6882 20.764 16.7003 -12.3923 18.3316 10.6296 0.7155 108.065 -11.9708 73.7035 34.2034 56.3083 82.8296 21.3666 18.6246 2.42343 28.7555 -9.9385 -24.1957 -37.9158 5.15377 80.1436 9.69563 -1.87721 0.290623 -1.18446e-009 1.5602e-007 -4.87131e-009 
-952.463 92.4362 372.736 6.79759 -11.4045 33.5927 -23.8522 0.85342 10.28 50.1224 23.2168 -48.1598 -0.989309 0.092408 -1.00415 0.0462048 0.000533403 0.662642 -3.89272 22.2289 -5.65005 -0.00323146 0.0184992 0.000993528 9.61155 -1.42199 -1.63307 -1.59028e-015 1.59028e-015 -0 -133.674 -54.6873 -104.663 -52.2635 62.1783 -54.229 20.6473 16.7645 -12.5601 18.2636 10.9803 0.3287 107.525 -12.304 73.7945 34.3151 56.2064 83.116 21.0042 18.915 2.37557 28.2786 -9.59663 -22.7949 -37.5805 5.96359 77.3313 10.8237 -2.06115 0.36006 -1.18447e-009 1.5602e-007 -4.87131e-009 
-952.184 92.1197 372.995 6.98188 -11.3845 33.9127 -24.0539 0.0537137 10.4235 50.8667 24.5114 -48.9895 -0.114258 0.232987 -1.04169 0.0462048 0.000533403 0.662642 -3.81591 21.8785 -5.35801 -0.0032311 0.0172535 -0.000126588 8.52544 0.374339 0.049345 -1.19271e-015 0 -3.18055e-015 -129.278 -53.6894 -100.469 -48.2777 60.595 -57.2745 20.5934 16.6925 -12.7058 18.2607 11.1884 -7.07737e-005 107.03 -12.6844 73.8361 34.3948 56.1459 83.4575 20.6846 19.1497 2.33054 27.8904 -9.42313 -21.3609 -37.3324 6.84682 74.7789 11.9786 -2.21744 0.428537 -1.18447e-009 1.5602e-007 -4.87131e-009 
-951.888 91.837 373.245 7.18271 -11.3421 34.2557 -24.2366 -0.700114 10.5066 51.4734 25.7931 -49.7201 0.775425 0.351454 -1.06854 0.0462048 0.000533403 0.662642 -3.82705 21.66 -5.06122 -0.00323078 0.0159112 -0.0012629 7.52152 1.8905 1.61831 3.97569e-016 -1.59028e-015 3.18055e-015 -126.056 -52.6602 -97.3294 -45.4273 59.2286 -59.4045 20.3926 16.7396 -12.839 18.3038 11.28 -0.28881 106.585 -13.075 73.8169 34.4298 56.1205 83.872 20.4047 19.3345 2.26474 27.5728 -9.39811 -19.9167 -37.1737 7.78733 72.4968 13.1731 -2.33871 0.496983 -1.18446e-009 1.5602e-007 -4.87131e-009 
-951.593 91.5898 373.484 7.39736 -11.2779 34.6203 -24.387 -1.40612 10.5367 51.9524 27.0307 -50.3836 1.64455 0.444889 -1.08101 0.0462048 0.000533403 0.662642 -3.92122 21.5546 -4.76686 -0.00323051 0.0145943 -0.00244484 6.60174 3.14012 3.06296 0 1.59028e-015 -0 -123.667 -51.6355 -94.9557 -43.3085 58.0669 -60.9537 20.2671 16.7213 -12.9646 18.3883 11.2732 -0.550907 106.173 -13.4396 73.7307 34.3993 56.1139 84.3761 20.1967 19.4841 2.16681 27.3266 -9.5011 -18.482 -37.1925 8.81705 70.4899 14.3607 -2.40954 0.561578 -1.18446e-009 1.5602e-007 -4.87131e-009 
